<svg xmlns="http://www.w3.org/2000/svg" version="1.1" xmlns:xlink="http://www.w3.org/1999/xlink" xmlns:svgjs="http://svgjs.dev/svgjs" width="2000" height="2250" viewBox="0 0 2000 2250"><g transform="matrix(1,0,0,1,3.410605131648481e-13,0)"><svg viewBox="0 0 320 360" data-background-color="#000000" preserveAspectRatio="xMidYMid meet" height="2250" width="2000" xmlns="http://www.w3.org/2000/svg" xmlns:xlink="http://www.w3.org/1999/xlink"><g id="tight-bounds" transform="matrix(1,0,0,1,0,0)"><svg viewBox="0 0 320 360" height="360" width="320"><g><svg></svg></g><g><svg viewBox="0 0 320 360" height="360" width="320"><g><path d="M20.961 227.22l3.726 4.658-1.863-6.056c-0.466-2.795-3.726 0.466-1.863 1.398M25.153 224.425c1.397 2.329 2.795 4.658 2.795 6.987 0 3.261 2.795 4.658 5.123 5.589-3.261-3.726-5.124-13.974-7.918-12.576M204.017 26.929c7.918 0 15.371-0.932 23.756 0.931 20.495 5.124 37.729 15.371 49.374 29.811l32.606 52.169c1.397 13.042 4.192 27.482 3.726 43.319 3.261 0 2.795-4.658 6.521-5.59-3.726 9.316-5.59 20.961-6.521 34.469-2.329-7.453 0-18.632 0.466-24.687-3.261 5.124-5.124 1.397-5.124-0.932 0.466-3.726-1.397-3.261-2.795-4.658-5.124-4.658-8.384-9.782-12.11-17.7 2.329-6.055 2.795-14.905-4.658-19.563-2.329-1.397-5.124-3.726-6.521-7.453-1.863-5.124-5.124-11.179-4.193-19.097 0.466-2.329-6.987 5.124-11.179 1.863-18.166-12.576-36.332-27.016-58.224-39.127-11.645 0-20.029-4.192-24.221-9.316-3.726-4.658-0.932-10.713 4.658-11.179 3.261 0 6.987-0.932 9.782 0.932 0.466-1.863 2.329-4.192 4.657-4.192M157.904 16.215l0.932 0.466c4.658 0.932 6.987 7.453 12.11 5.124 0 3.261 0.466 6.521-0.466 8.85-1.397 3.726-5.59 3.726-8.85 3.726-31.208-1.863-49.374 11.179-68.471 22.358-5.124 3.261-10.713 5.59-14.906 9.782-20.029 18.632-41.921 35.866-47.045 70.335l-4.192 38.195c-0.466 4.192-5.124 8.384-4.192 13.508l3.26 22.824c-3.261-3.261-5.124 0.932-4.192 2.795 0.466 1.397 2.329 6.055 5.124 1.863 3.726 6.987 7.453 20.495 12.576 26.55 15.837 18.632 36.332 35.4 53.101 52.169 4.192-0.932 7.453-0.932 8.384-3.727 1.397 2.795-1.397 5.59-3.726 6.056 7.453 4.658 15.837 8.85 27.016 9.781 14.44 0.932 27.948 3.261 40.524 6.522 6.521-1.863 13.042-2.795 20.029-3.261 2.329 0 3.726-3.726 6.521-4.658l0.466-4.658c2.795 4.192 2.329-1.397 0.466-4.192 3.261 2.795 4.192 5.124 5.589 6.987 0-1.397 3.726-6.521 3.727-0.466l0.931-6.055c1.397-0.932 1.863 5.124 3.261 0.931 1.397-4.192 4.192-0.932 6.987-2.329-0.932 1.863-0.466 5.59 2.794 3.261l3.727-3.261c2.329 5.59 6.055 3.261 7.918 2.329 20.495-13.042 40.99-28.413 60.553-43.784l-0.466 6.055 2.329-7.453c2.329 2.329 4.192 0.466 5.124-0.931 2.795-4.658 6.521-9.316 12.577-13.508-7.453 20.029-16.303 35.866-27.482 48.908l-4.658 5.59c0 3.261-0.932 7.453-4.658 7.918-1.863 0.466-5.59-0.932-8.384 1.863-1.397 1.863 3.261 5.59-0.466 2.795-3.261-2.329-6.521 0-10.248 0.932-2.795 0.932 1.863 3.726 2.795 5.589 0.932 1.863 1.863 3.726 1.398 6.056l-5.124-5.59c-6.055 3.261-9.782 9.316-14.906 13.974-2.329 1.863-1.397 5.124-1.397 7.918-3.261 0-6.987-0.932-8.85 0.932-1.397 1.863-0.932 4.658-0.932 7.453-4.658-0.466-5.124-7.453-9.315-6.056-4.192 0.932-8.85 1.397-12.577 3.727 2.795 5.59-4.658 2.329-3.726 3.26-6.987-4.192-13.042-7.453-20.495-4.658-15.837-5.124-35.4-2.795-49.84-0.931 0-2.329 0.466-4.658-0.466-5.124-0.932 2.329-3.726 1.397-3.26 1.397-8.85-6.055-17.7-9.782-27.016-14.905-8.384 0.932-16.303-3.261-18.632-5.59-6.521-6.055-13.974-2.795-20.029-4.192-13.042-3.261-17.7-16.769-19.098-26.084-0.932-4.658-4.658-6.521-6.055-6.056-6.055-19.563-15.371-37.263-22.824-55.429-1.863-4.658-1.397-9.316-1.397-14.44 2.329 0.932 4.658 0.466 4.192-2.794-2.329-15.371-7.918-27.016-13.974-38.195 3.261-15.837 3.726-34.469 11.179-48.443 6.521-12.576 18.632-19.098 27.016-29.811 2.795-3.726 2.795-8.85 5.59-12.11 9.316-9.316 18.632-19.098 28.879-27.482 4.658-3.726 10.247 0 17.234-1.397 2.329-8.384 11.645-15.837 20.495-13.508 3.726 0.932 11.179-8.85 13.508-9.782 3.726-1.397 1.863 3.726 1.863 6.987 8.85-6.987 20.961-10.713 32.14-14.906" fill="#15ddae" fill-rule="nonzero" stroke="none" stroke-width="1" stroke-linecap="butt" stroke-linejoin="miter" stroke-miterlimit="10" stroke-dasharray="" stroke-dashoffset="0" font-family="none" font-weight="none" font-size="none" text-anchor="none" style="mix-blend-mode: normal" data-fill-palette-color="tertiary"></path></g><g transform="matrix(1,0,0,1,64,145.9921404440436)"><svg viewBox="0 0 192 68.01571911191282" height="68.01571911191282" width="192"><g><svg viewBox="0 0 192 68.01571911191282" height="68.01571911191282" width="192"><g><svg viewBox="0 0 192 68.01571911191282" height="68.01571911191282" width="192"><g><svg viewBox="0 0 192 68.01571911191282" height="68.01571911191282" width="192"><g id="textblocktransform"><svg viewBox="0 0 192 68.01571911191282" height="68.01571911191282" width="192" id="textblock"><g><svg viewBox="0 0 192 40.737767756482526" height="40.737767756482526" width="192"><g transform="matrix(1,0,0,1,0,0)"><svg width="192" viewBox="1.85 -46.2 221.73000000000002 47.050000000000004" height="40.737767756482526" data-palette-color="#15ddae"><path d="M26.2-35.6L26.2-34.15Q20.65-33.4 16.2-30.33 11.75-27.25 9.22-22.58 6.7-17.9 6.7-12.45L6.7-12.45Q6.7-7.9 8.45-5.25 10.2-2.6 13.05-2.6L13.05-2.6Q15.85-2.6 18.43-6.48 21-10.35 22.58-16.63 24.15-22.9 24.15-29.7L24.15-29.7 28.85-31.55 28.85-5.35Q28.85-3.95 29.45-3.1 30.05-2.25 31.1-2.25L31.1-2.25Q31.9-2.25 32.75-2.78 33.6-3.3 34.05-4.05L34.05-4.05 34.75-3.4Q34.05-1.85 32.6-0.8 31.15 0.25 29.3 0.25L29.3 0.25Q27 0.25 25.58-1.35 24.15-2.95 24.15-5.9L24.15-5.9 24.15-15.45 23.9-15.45Q20.3 0.55 11.7 0.55L11.7 0.55Q7.25 0.55 4.55-2.58 1.85-5.7 1.85-11.15L1.85-11.15Q1.85-17.4 5.15-22.9 8.45-28.4 14.05-31.85 19.65-35.3 26.2-35.6L26.2-35.6ZM42.95-2.1Q42.95-0.85 42.05 0 41.15 0.85 39.9 0.85L39.9 0.85Q38.65 0.85 37.75 0 36.85-0.85 36.85-2.1L36.85-2.1Q36.85-3.35 37.75-4.25 38.65-5.15 39.9-5.15L39.9-5.15Q41.15-5.15 42.05-4.25 42.95-3.35 42.95-2.1L42.95-2.1ZM74.44-36.15Q79.19-36.15 82.82-33.5 86.44-30.85 88.42-26.55 90.39-22.25 90.39-17.55L90.39-17.55Q90.39-12.9 88.62-8.68 86.84-4.45 83.24-1.8 79.64 0.85 74.44 0.85L74.44 0.85Q69.64 0.85 65.94-1.8 62.24-4.45 60.27-8.7 58.29-12.95 58.29-17.55L58.29-17.55Q58.29-22.3 60.07-26.55 61.84-30.8 65.49-33.48 69.14-36.15 74.44-36.15L74.44-36.15ZM72.14-33.4Q68.94-33.4 66.84-31.53 64.74-29.65 63.79-26.83 62.84-24 62.84-21.2L62.84-21.2Q62.84-16.85 64.27-12.48 65.69-8.1 68.77-5.13 71.84-2.15 76.49-2.15L76.49-2.15Q79.69-2.15 81.77-4.05 83.84-5.95 84.79-8.75 85.74-11.55 85.74-14.4L85.74-14.4Q85.74-18.65 84.34-23.05 82.94-27.45 79.87-30.43 76.79-33.4 72.14-33.4L72.14-33.4ZM100.64-46.2L100.64-9.7 100.99-9.7Q102.44-15.4 105.22-20.43 107.99-25.45 111.94-25.45L111.94-25.45Q113.54-25.45 114.49-24.2 115.44-22.95 115.44-21.15L115.44-21.15Q115.44-18.1 112.84-15.3 110.24-12.5 106.89-10.5L106.89-10.5Q107.14-10.15 108.62-7.98 110.09-5.8 111.84-4.1 113.59-2.4 114.84-2.4L114.84-2.4Q116.64-2.4 118.09-4.1L118.09-4.1 118.89-3.25Q117.79-1.55 115.87-0.53 113.94 0.5 112.09 0.5L112.09 0.5Q109.94 0.5 108.22-1.1 106.49-2.7 104.49-5.5L104.49-5.5Q102.89-7.7 102.09-8.35L102.09-8.35 101.64-8Q101.29-6.85 101.04-4.6 100.79-2.35 100.74-0.6L100.74-0.6 96.14 0.7 96.14-44.3 100.64-46.2ZM108.84-20.05Q107.34-20.05 105.84-17.53 104.34-15 102.74-11.2L102.74-11.2Q101.94-9.35 101.84-9.25L101.84-9.25Q105.19-10.65 107.89-13.1 110.59-15.55 110.59-18.05L110.59-18.05Q110.59-18.7 110.12-19.38 109.64-20.05 108.84-20.05L108.84-20.05ZM134.94-25Q137.39-25 139.56-23.95 141.74-22.9 142.74-20.75L142.74-20.75 139.14-18.8Q138.34-19.95 136.94-20.88 135.54-21.8 133.94-21.8L133.94-21.8Q131.39-21.8 129.49-20.48 127.59-19.15 126.59-16.9 125.59-14.65 125.59-11.9L125.59-11.9Q125.59-7.95 126.94-5.48 128.29-3 131.19-3L131.19-3Q135.29-3 136.84-6.3 138.39-9.6 138.39-13.5L138.39-13.5 138.39-15.75 142.79-17.6 142.79-4.45Q142.79-3.8 143.14-3.2 143.49-2.6 144.19-2.6L144.19-2.6Q145.64-2.6 146.84-4.6L146.84-4.6 147.59-3.8Q146.99-2.1 145.49-0.93 143.99 0.25 142.49 0.25L142.49 0.25Q140.34 0.25 139.31-1.35 138.29-2.95 138.29-5.6L138.29-5.6 138.19-5.6Q136.94-2.95 134.81-1.18 132.69 0.6 130.34 0.6L130.34 0.6Q126.09 0.6 123.91-2.33 121.74-5.25 121.74-10.15L121.74-10.15Q121.74-14.05 123.49-17.48 125.24-20.9 128.26-22.95 131.29-25 134.94-25L134.94-25ZM157.79-27.05Q159.49-27.05 160.26-26.45 161.04-25.85 161.04-24.6L161.04-24.6Q161.04-23.25 160.51-22.2 159.99-21.15 159.39-20.4 158.79-19.65 158.59-19.35L158.59-19.35Q159.19-18.35 160.84-17L160.84-17Q162.19-15.85 162.99-14.95 163.79-14.05 164.36-12.53 164.94-11 164.94-8.8L164.94-8.8Q164.94-6.2 163.76-4.05 162.59-1.9 160.51-0.65 158.44 0.6 155.84 0.6L155.84 0.6Q154.24 0.6 152.34-0.08 150.44-0.75 149.54-2L149.54-2 152.89-6.45Q154.09-4.9 155.41-3.8 156.74-2.7 158.29-2.7L158.29-2.7Q160.44-2.7 161.96-4.13 163.49-5.55 163.49-7.55L163.49-7.55Q163.49-9.15 162.16-10.73 160.84-12.3 158.44-14.45L158.44-14.45Q158.14-14.7 157.29-15.48 156.44-16.25 156.04-16.75L156.04-16.75 152.54-11.6 150.94-12.65 154.94-18.2Q154.24-20.15 154.24-22.05L154.24-22.05Q154.24-24.2 155.19-25.63 156.14-27.05 157.79-27.05L157.79-27.05ZM157.79-25.1Q157.14-25.1 156.96-24.75 156.79-24.4 156.79-23.7L156.79-23.7Q156.79-22.8 157.04-22.15 157.29-21.5 157.39-21.25L157.39-21.25Q157.94-21.6 158.41-22.53 158.89-23.45 158.89-24.1L158.89-24.1Q158.89-24.55 158.61-24.83 158.34-25.1 157.79-25.1L157.79-25.1ZM175.88-46.2L175.88-10.65 176.08-10.65Q176.58-13.4 177.86-16.82 179.13-20.25 181.28-22.85 183.43-25.45 186.33-25.45L186.33-25.45Q187.88-25.45 188.61-24.33 189.33-23.2 189.46-21.8 189.58-20.4 189.58-18.1L189.58-18.1 189.58-4.2Q189.58-3.6 189.96-3.05 190.33-2.5 191.13-2.5L191.13-2.5Q192.43-2.5 193.78-4.45L193.78-4.45 194.38-3.7Q193.68-2.05 192.16-0.9 190.63 0.25 189.08 0.25L189.08 0.25Q185.18 0.25 185.18-4.8L185.18-4.8 185.18-18.05Q185.18-18.7 184.91-19.25 184.63-19.8 183.98-19.8L183.98-19.8Q181.43-19.8 179.58-15.83 177.73-11.85 176.73-7.08 175.73-2.3 175.73-0.6L175.73-0.6 171.28 0.7 171.28-44.3 175.88-46.2ZM210.93-25Q213.38-25 215.56-23.95 217.73-22.9 218.73-20.75L218.73-20.75 215.13-18.8Q214.33-19.95 212.93-20.88 211.53-21.8 209.93-21.8L209.93-21.8Q207.38-21.8 205.48-20.48 203.58-19.15 202.58-16.9 201.58-14.65 201.58-11.9L201.58-11.9Q201.58-7.95 202.93-5.48 204.28-3 207.18-3L207.18-3Q211.28-3 212.83-6.3 214.38-9.6 214.38-13.5L214.38-13.5 214.38-15.75 218.78-17.6 218.78-4.45Q218.78-3.8 219.13-3.2 219.48-2.6 220.18-2.6L220.18-2.6Q221.63-2.6 222.83-4.6L222.83-4.6 223.58-3.8Q222.98-2.1 221.48-0.93 219.98 0.25 218.48 0.25L218.48 0.25Q216.33 0.25 215.31-1.35 214.28-2.95 214.28-5.6L214.28-5.6 214.18-5.6Q212.93-2.95 210.81-1.18 208.68 0.6 206.33 0.6L206.33 0.6Q202.08 0.6 199.91-2.33 197.73-5.25 197.73-10.15L197.73-10.15Q197.73-14.05 199.48-17.48 201.23-20.9 204.26-22.95 207.28-25 210.93-25L210.93-25Z" opacity="1" transform="matrix(1,0,0,1,0,0)" fill="#15ddae" class="wordmark-text-0" data-fill-palette-color="primary" id="text-0"></path></svg></g></svg></g><g transform="matrix(1,0,0,1,0,46.68238577857948)"><svg viewBox="0 0 192 21.333333333333336" height="21.333333333333336" width="192"><g transform="matrix(1,0,0,1,0,0)"><svg width="192" viewBox="2.13 -33.8 388.53000000000003 43.18" height="21.333333333333336" data-palette-color="#15ddae"><path d="M12.68 0.58L12.68 0.58Q10.38 0.58 8.46 0.2 6.55-0.18 5.05-0.73 3.55-1.28 2.55-1.83L2.55-1.83 2.13-5.95Q4.05-4.8 6.66-3.94 9.28-3.08 12.35-3.08L12.35-3.08Q16.05-3.08 17.82-4.39 19.6-5.7 19.6-8.33L19.6-8.33 19.6-8.72Q19.6-10.45 18.9-11.55 18.2-12.65 16.54-13.4 14.88-14.15 12.03-14.8L12.03-14.8Q8.43-15.65 6.26-16.81 4.1-17.98 3.14-19.73 2.18-21.48 2.18-24.08L2.18-24.08 2.18-24.3Q2.18-28.23 4.75-30.36 7.33-32.5 12.55-32.5L12.55-32.5Q15.98-32.5 18.39-31.8 20.8-31.1 22.33-30.25L22.33-30.25 22.7-26.45Q20.93-27.5 18.56-28.24 16.2-28.98 13.15-28.98L13.15-28.98Q10.73-28.98 9.22-28.4 7.73-27.83 7.05-26.75 6.38-25.68 6.38-24.15L6.38-24.15 6.38-24.05Q6.38-22.5 7.04-21.4 7.7-20.3 9.36-19.5 11.03-18.7 14.1-17.95L14.1-17.95Q17.63-17.13 19.75-16.05 21.88-14.98 22.84-13.25 23.8-11.53 23.8-8.75L23.8-8.75 23.8-8.22Q23.8-3.9 21.01-1.66 18.23 0.58 12.68 0.58ZM39.05 0.63L39.05 0.63Q33.8 0.63 31.09-2.21 28.37-5.05 28.37-10.38L28.37-10.38 28.37-14.1Q28.37-19.4 31.1-22.23 33.82-25.05 39.05-25.05L39.05-25.05Q44.3-25.05 47.01-22.23 49.72-19.4 49.72-14.1L49.72-14.1 49.72-10.38Q49.72-5.05 47.01-2.21 44.3 0.63 39.05 0.63ZM39.05-2.68L39.05-2.68Q42.3-2.68 43.98-4.6 45.67-6.53 45.67-10.15L45.67-10.15 45.67-14.33Q45.67-17.93 43.98-19.84 42.3-21.75 39.05-21.75L39.05-21.75Q35.82-21.75 34.12-19.84 32.42-17.93 32.42-14.33L32.42-14.33 32.42-10.15Q32.42-6.53 34.12-4.6 35.82-2.68 39.05-2.68ZM63.55-33.8L63.55-33.8Q65.42-33.8 66.91-33.46 68.4-33.13 69.65-32.63L69.65-32.63 70.05-29.45Q68.82-29.9 67.58-30.16 66.34-30.43 64.8-30.43L64.8-30.43Q62.92-30.43 61.78-29.94 60.65-29.45 60.16-28.56 59.67-27.68 59.67-26.43L59.67-26.43 59.67-26.3Q59.67-25.43 59.9-24.64 60.12-23.85 60.4-23.2L60.4-23.2 57.67-23.1 57.67-23.6Q56.9-24.2 56.31-25.28 55.72-26.35 55.72-27.78L55.72-27.78 55.72-27.9Q55.72-30.58 57.62-32.19 59.52-33.8 63.55-33.8ZM60.57 0L56.55 0 56.55-22.23 60.57-22.23 60.57 0ZM69.57-20.25L52.52-20.25 52.52-23.48 58.09-23.45 59.75-23.48 69.95-23.48 69.57-20.25ZM82.99 0.5L82.99 0.5Q80.17 0.5 78.44-0.35 76.72-1.2 75.94-2.93 75.17-4.65 75.17-7.23L75.17-7.23 75.17-22.63 79.17-22.63 79.17-7.7Q79.17-5.3 80.27-4.16 81.37-3.03 83.97-3.03L83.97-3.03Q85.44-3.03 86.81-3.35 88.17-3.68 89.37-4.28L89.37-4.28 88.99-0.8Q87.82-0.2 86.24 0.15 84.67 0.5 82.99 0.5ZM88.74-20.8L71.17-20.8 71.17-24.05 89.12-24.05 88.74-20.8ZM79.07-23.65L75.19-23.65 75.17-30.5 79.24-31.03 79.07-23.65ZM104.22 0L97.99 0 91.99-24.4 96.17-24.4 100.97-2.95 101.44-2.95 106.44-23.75 112.17-23.75 117.17-2.95 117.62-2.95 122.47-24.4 126.62-24.4 120.62 0 114.42 0 110.29-17.35 109.49-20.83 109.12-20.83 108.34-17.35 104.22 0ZM149.81 0L145.79 0 145.96-5.93 145.81-6.55 145.81-14.33 145.84-15.75Q145.84-18.73 144.33-20.15 142.81-21.58 139.54-21.58L139.54-21.58Q136.91-21.58 134.73-20.83 132.54-20.08 130.84-19.07L130.84-19.07 131.21-22.53Q132.16-23.1 133.48-23.66 134.79-24.23 136.48-24.6 138.16-24.98 140.19-24.98L140.19-24.98Q142.81-24.98 144.65-24.34 146.49-23.7 147.63-22.5 148.76-21.3 149.29-19.6 149.81-17.9 149.81-15.8L149.81-15.8 149.81 0ZM137.39 0.53L137.39 0.53Q133.76 0.53 131.83-1.24 129.89-3 129.89-6.28L129.89-6.28 129.89-7Q129.89-10.38 131.98-12.04 134.06-13.7 138.61-14.35L138.61-14.35 146.34-15.45 146.56-12.5 139.11-11.43Q136.31-11.03 135.11-10.06 133.91-9.1 133.91-7.23L133.91-7.23 133.91-6.83Q133.91-4.9 135.1-3.88 136.29-2.85 138.66-2.85L138.66-2.85Q140.76-2.85 142.26-3.58 143.76-4.3 144.69-5.53 145.61-6.75 145.94-8.25L145.94-8.25 146.56-5.5 145.79-5.5Q145.44-3.9 144.48-2.53 143.51-1.15 141.79-0.31 140.06 0.53 137.39 0.53ZM159.86-14.93L159.86-14.93 158.94-18.05 159.94-18.1Q160.74-21.2 162.69-22.99 164.64-24.78 167.86-24.78L167.86-24.78Q168.66-24.78 169.3-24.65 169.94-24.53 170.44-24.35L170.44-24.35 170.69-20.43Q170.06-20.63 169.3-20.75 168.54-20.88 167.61-20.88L167.61-20.88Q164.86-20.88 162.82-19.35 160.79-17.82 159.86-14.93ZM160.06 0L156.01 0 156.01-24.4 159.96-24.4 159.76-17.2 160.06-16.9 160.06 0ZM184.91 0.55L184.91 0.55Q179.33 0.55 176.51-2.18 173.68-4.9 173.68-9.98L173.68-9.98 173.68-14.33Q173.68-19.48 176.31-22.26 178.93-25.05 183.98-25.05L183.98-25.05Q187.38-25.05 189.66-23.79 191.93-22.53 193.08-20.2 194.23-17.88 194.23-14.65L194.23-14.65 194.23-13.75Q194.23-12.95 194.17-12.15 194.11-11.35 194.01-10.58L194.01-10.58 190.28-10.58Q190.33-11.78 190.35-12.85 190.36-13.93 190.36-14.83L190.36-14.83Q190.36-17.05 189.65-18.59 188.93-20.13 187.52-20.94 186.11-21.75 183.98-21.75L183.98-21.75Q180.83-21.75 179.26-19.93 177.68-18.1 177.68-14.7L177.68-14.7 177.68-12.38 177.71-11.88 177.71-9.55Q177.71-8.03 178.16-6.8 178.61-5.58 179.57-4.69 180.53-3.8 182.02-3.34 183.51-2.88 185.56-2.88L185.56-2.88Q187.93-2.88 189.98-3.5 192.03-4.13 193.83-5.2L193.83-5.2 193.46-1.7Q191.83-0.68 189.68-0.06 187.53 0.55 184.91 0.55ZM193.16-10.58L175.81-10.58 175.81-13.63 193.16-13.63 193.16-10.58ZM214.73 0L210.63 0 210.63-31.95 214.73-31.95 214.73 0ZM230.55 0L211.85 0 211.85-3.48 230.55-3.48 230.55 0ZM230.03-14.58L212.98-14.58 212.98-18.03 230.03-18.03 230.03-14.58ZM230.4-28.48L211.83-28.48 211.83-31.95 230.4-31.95 230.4-28.48ZM256.68 0L252.63 0 252.63-15.18Q252.63-17.15 252.09-18.57 251.55-20 250.34-20.79 249.13-21.58 247.03-21.58L247.03-21.58Q245.1-21.58 243.69-20.85 242.28-20.13 241.4-18.89 240.53-17.65 240.18-16.07L240.18-16.07 239.45-18.95 240.33-18.95Q240.73-20.6 241.73-21.96 242.73-23.33 244.41-24.14 246.1-24.95 248.55-24.95L248.55-24.95Q251.45-24.95 253.24-23.85 255.03-22.75 255.85-20.69 256.68-18.63 256.68-15.63L256.68-15.63 256.68 0ZM240.35 0L236.3 0 236.3-24.4 240.35-24.4 240.18-18.55 240.35-18.32 240.35 0ZM272.45-7.3L272.45-7.3Q267.47-7.3 264.81-9.47 262.15-11.65 262.15-15.7L262.15-15.7 262.15-16.32Q262.15-18.85 263.19-20.73 264.22-22.6 266.5-23.66 268.77-24.73 272.45-24.83L272.45-24.83 284.9-25.23 284.9-22.03 277.55-22.28 277.52-22.1Q279.25-21.75 280.35-20.9 281.45-20.05 281.99-18.78 282.52-17.5 282.52-15.8L282.52-15.8 282.52-15.25Q282.52-11.38 279.97-9.34 277.42-7.3 272.45-7.3ZM272.27 6.15L272.27 6.15 272.85 6.15Q275.1 6.15 276.71 5.81 278.32 5.48 279.2 4.75 280.07 4.03 280.07 2.83L280.07 2.83 280.07 2.73Q280.07 1.33 279.06 0.59 278.05-0.15 275.6-0.38L275.6-0.38 268.7-1 269.85-1.05Q268.45-0.85 267.39-0.4 266.32 0.05 265.72 0.79 265.12 1.53 265.12 2.63L265.12 2.63 265.12 2.68Q265.12 3.95 266 4.73 266.87 5.5 268.47 5.83 270.07 6.15 272.27 6.15ZM272.77 9.38L272.05 9.38Q268.75 9.38 266.36 8.81 263.97 8.25 262.66 6.99 261.35 5.73 261.35 3.6L261.35 3.6 261.35 3.5Q261.35 2 262.06 1 262.77 0 263.99-0.58 265.2-1.15 266.7-1.35L266.7-1.35 266.67-1.5Q264.62-1.85 263.65-2.71 262.67-3.58 262.67-4.95L262.67-4.95 262.67-4.98Q262.67-5.93 263.11-6.6 263.55-7.28 264.44-7.68 265.32-8.08 266.7-8.18L266.7-8.18 266.7-8.68 271.35-7.5 269.45-7.55Q267.75-7.53 267.1-7.14 266.45-6.75 266.45-5.98L266.45-5.98 266.45-5.95Q266.45-5.13 267.37-4.7 268.3-4.28 270.52-4.03L270.52-4.03 276.45-3.43Q280.32-3.03 282.1-1.56 283.87-0.1 283.87 2.75L283.87 2.75 283.87 2.88Q283.87 5.15 282.52 6.6 281.17 8.05 278.7 8.71 276.22 9.38 272.77 9.38L272.77 9.38ZM272.4-10.3L272.4-10.3Q274.5-10.3 275.89-10.91 277.27-11.53 277.99-12.76 278.7-14 278.7-15.8L278.7-15.8 278.7-16.4Q278.7-18.15 278.01-19.38 277.32-20.6 275.95-21.24 274.57-21.88 272.5-21.88L272.5-21.88 272.35-21.88Q270.1-21.88 268.69-21.19 267.27-20.5 266.64-19.26 266-18.03 266-16.38L266-16.38 266-15.8Q266-14 266.71-12.78 267.42-11.55 268.85-10.93 270.27-10.3 272.4-10.3ZM292.7 0L288.65 0 288.65-24.4 292.7-24.4 292.7 0ZM290.67-28.4L290.67-28.4Q289.42-28.4 288.81-29.06 288.2-29.73 288.2-30.88L288.2-30.88 288.2-31Q288.2-32.18 288.81-32.83 289.42-33.48 290.67-33.48L290.67-33.48Q291.92-33.48 292.55-32.83 293.17-32.18 293.17-31L293.17-31 293.17-30.88Q293.17-29.7 292.55-29.05 291.92-28.4 290.67-28.4ZM319.77 0L315.72 0 315.72-15.18Q315.72-17.15 315.18-18.57 314.64-20 313.43-20.79 312.22-21.58 310.12-21.58L310.12-21.58Q308.19-21.58 306.78-20.85 305.37-20.13 304.49-18.89 303.62-17.65 303.27-16.07L303.27-16.07 302.54-18.95 303.42-18.95Q303.82-20.6 304.82-21.96 305.82-23.33 307.51-24.14 309.19-24.95 311.64-24.95L311.64-24.95Q314.54-24.95 316.33-23.85 318.12-22.75 318.94-20.69 319.77-18.63 319.77-15.63L319.77-15.63 319.77 0ZM303.44 0L299.39 0 299.39-24.4 303.44-24.4 303.27-18.55 303.44-18.32 303.44 0ZM336.29 0.55L336.29 0.55Q330.72 0.55 327.89-2.18 325.06-4.9 325.06-9.98L325.06-9.98 325.06-14.33Q325.06-19.48 327.69-22.26 330.31-25.05 335.37-25.05L335.37-25.05Q338.76-25.05 341.04-23.79 343.31-22.53 344.47-20.2 345.62-17.88 345.62-14.65L345.62-14.65 345.62-13.75Q345.62-12.95 345.55-12.15 345.49-11.35 345.39-10.58L345.39-10.58 341.67-10.58Q341.72-11.78 341.73-12.85 341.74-13.93 341.74-14.83L341.74-14.83Q341.74-17.05 341.03-18.59 340.31-20.13 338.9-20.94 337.49-21.75 335.37-21.75L335.37-21.75Q332.22-21.75 330.64-19.93 329.06-18.1 329.06-14.7L329.06-14.7 329.06-12.38 329.09-11.88 329.09-9.55Q329.09-8.03 329.54-6.8 329.99-5.58 330.95-4.69 331.92-3.8 333.4-3.34 334.89-2.88 336.94-2.88L336.94-2.88Q339.31-2.88 341.37-3.5 343.42-4.13 345.22-5.2L345.22-5.2 344.84-1.7Q343.22-0.68 341.06-0.06 338.92 0.55 336.29 0.55ZM344.54-10.58L327.19-10.58 327.19-13.63 344.54-13.63 344.54-10.58ZM361.26 0.55L361.26 0.55Q355.69 0.55 352.86-2.18 350.04-4.9 350.04-9.98L350.04-9.98 350.04-14.33Q350.04-19.48 352.66-22.26 355.29-25.05 360.34-25.05L360.34-25.05Q363.74-25.05 366.01-23.79 368.29-22.53 369.44-20.2 370.59-17.88 370.59-14.65L370.59-14.65 370.59-13.75Q370.59-12.95 370.53-12.15 370.46-11.35 370.36-10.58L370.36-10.58 366.64-10.58Q366.69-11.78 366.7-12.85 366.71-13.93 366.71-14.83L366.71-14.83Q366.71-17.05 366-18.59 365.29-20.13 363.88-20.94 362.46-21.75 360.34-21.75L360.34-21.75Q357.19-21.75 355.61-19.93 354.04-18.1 354.04-14.7L354.04-14.7 354.04-12.38 354.06-11.88 354.06-9.55Q354.06-8.03 354.51-6.8 354.96-5.58 355.93-4.69 356.89-3.8 358.38-3.34 359.86-2.88 361.91-2.88L361.91-2.88Q364.29-2.88 366.34-3.5 368.39-4.13 370.19-5.2L370.19-5.2 369.81-1.7Q368.19-0.68 366.04-0.06 363.89 0.55 361.26 0.55ZM369.51-10.58L352.16-10.58 352.16-13.63 369.51-13.63 369.51-10.58ZM379.84-14.93L379.84-14.93 378.91-18.05 379.91-18.1Q380.71-21.2 382.66-22.99 384.61-24.78 387.84-24.78L387.84-24.78Q388.64-24.78 389.27-24.65 389.91-24.53 390.41-24.35L390.41-24.35 390.66-20.43Q390.04-20.63 389.27-20.75 388.51-20.88 387.59-20.88L387.59-20.88Q384.84-20.88 382.8-19.35 380.76-17.82 379.84-14.93ZM380.04 0L375.99 0 375.99-24.4 379.94-24.4 379.74-17.2 380.04-16.9 380.04 0Z" opacity="1" transform="matrix(1,0,0,1,0,0)" fill="#15ddae" class="slogan-text-1" data-fill-palette-color="secondary" id="text-1"></path></svg></g></svg></g></svg></g></svg></g><g></g></svg></g></svg></g></svg></g></svg></g><defs></defs></svg><rect width="320" height="360" fill="none" stroke="none" visibility="hidden"></rect></g></svg></g></svg>